<svg width="640" height="420" viewBox="0 0 640 420" fill="none" xmlns="http://www.w3.org/2000/svg" role="img" aria-labelledby="title desc">
  <title id="title">2.5 inch enclosure opening guide</title>
  <desc id="desc">Three-step diagram showing clips and hidden screws, seam pry, and drive sliding out from a 2.5 inch enclosure.</desc>
  <defs>
    <linearGradient id="card" x1="80" y1="52" x2="560" y2="368" gradientUnits="userSpaceOnUse">
      <stop stop-color="#FFFFFF"/>
      <stop offset="1" stop-color="#F2F5F8"/>
    </linearGradient>
    <linearGradient id="shell" x1="108" y1="176" x2="226" y2="250" gradientUnits="userSpaceOnUse">
      <stop stop-color="#EBEFF4"/>
      <stop offset="1" stop-color="#D7DEE6"/>
    </linearGradient>
    <linearGradient id="drive" x1="408" y1="198" x2="514" y2="272" gradientUnits="userSpaceOnUse">
      <stop stop-color="#FAFCFD"/>
      <stop offset="1" stop-color="#DCE3EB"/>
    </linearGradient>
    <filter id="soft" x="72" y="40" width="496" height="340" filterUnits="userSpaceOnUse" color-interpolation-filters="sRGB">
      <feFlood flood-opacity="0" result="BackgroundImageFix"/>
      <feColorMatrix in="SourceAlpha" type="matrix" values="0 0 0 0 0 0 0 0 0 0 0 0 0 0 0 0 0 0 127 0" result="hardAlpha"/>
      <feOffset dy="10"/>
      <feGaussianBlur stdDeviation="12"/>
      <feColorMatrix type="matrix" values="0 0 0 0 0.12 0 0 0 0 0.16 0 0 0 0 0.2 0 0 0 0.14 0"/>
      <feBlend mode="normal" in2="BackgroundImageFix" result="effect1_dropShadow"/>
      <feBlend mode="normal" in="SourceGraphic" in2="effect1_dropShadow" result="shape"/>
    </filter>
    <marker id="arrow" viewBox="0 0 12 12" refX="10" refY="6" markerWidth="8" markerHeight="8" orient="auto-start-reverse">
      <path d="M1 1L10 6L1 11" stroke="#758393" stroke-width="2" fill="none" stroke-linecap="round" stroke-linejoin="round"/>
    </marker>
  </defs>

  <g filter="url(#soft)">
    <rect x="88" y="52" width="464" height="304" rx="24" fill="url(#card)"/>
  </g>

  <text x="118" y="88" fill="#6B7785" font-size="14" font-family="Arial, Helvetica, sans-serif">Step A</text>
  <text x="274" y="88" fill="#6B7785" font-size="14" font-family="Arial, Helvetica, sans-serif">Step B</text>
  <text x="430" y="88" fill="#6B7785" font-size="14" font-family="Arial, Helvetica, sans-serif">Step C</text>

  <rect x="110" y="134" width="118" height="122" rx="14" fill="url(#shell)" stroke="#C2CBD5"/>
  <rect x="116" y="140" width="106" height="12" rx="6" fill="#F8FAFC" stroke="#C8D1DB"/>
  <circle cx="122" cy="146" r="2.6" fill="#96A3B1"/>
  <circle cx="216" cy="146" r="2.6" fill="#96A3B1"/>
  <path d="M110 174H102M110 196H102M110 218H102" stroke="#A1ADBA" stroke-width="2" stroke-linecap="round"/>

  <rect x="266" y="134" width="118" height="122" rx="14" fill="#E6ECF2" stroke="#C2CBD5"/>
  <path d="M266 170H384" stroke="#A5B0BC" stroke-dasharray="4 4"/>
  <path d="M306 124L328 170" stroke="#97A4B2" stroke-width="6" stroke-linecap="round"/>
  <path d="M329 171C336 171 343 176 343 183" stroke="#758393" stroke-width="2.2" marker-end="url(#arrow)" fill="none"/>

  <rect x="422" y="138" width="118" height="114" rx="12" fill="#E2E8EF" stroke="#C2CBD5"/>
  <rect x="396" y="156" width="112" height="108" rx="10" fill="url(#drive)" stroke="#BFC9D3"/>
  <circle cx="498" cy="166" r="3.5" fill="#A0ACB9"/>
  <path d="M428 278H510" stroke="#758393" stroke-width="2.2" marker-end="url(#arrow)"/>
</svg>
